<svg width="320" height="320" viewBox="0 0 320 320" xmlns="http://www.w3.org/2000/svg" shape-rendering="crispEdges"><rect width="100%" height="100%" fill="#ffffff" /><use href="#animated1"/><rect width="320" height="10" x="0" y="0" fill="#ffffff" /><rect width="140" height="10" x="0" y="10" fill="#ffffff" /><rect width="40" height="10" x="140" y="10" fill="#000000" /><rect width="140" height="10" x="180" y="10" fill="#ffffff" /><rect width="130" height="10" x="0" y="20" fill="#ffffff" /><rect width="20" height="10" x="130" y="20" fill="#000000" /><rect width="20" height="10" x="150" y="20" fill="#ffffff" /><rect width="20" height="10" x="170" y="20" fill="#000000" /><rect width="130" height="10" x="190" y="20" fill="#ffffff" /><rect width="130" height="10" x="0" y="30" fill="#ffffff" /><rect width="10" height="10" x="130" y="30" fill="#000000" /><rect width="40" height="10" x="140" y="30" fill="#ffffff" /><rect width="10" height="10" x="180" y="30" fill="#000000" /><rect width="130" height="10" x="190" y="30" fill="#ffffff" /><rect width="130" height="10" x="0" y="40" fill="#ffffff" /><rect width="20" height="10" x="130" y="40" fill="#000000" /><rect width="20" height="10" x="150" y="40" fill="#ffffff" /><rect width="20" height="10" x="170" y="40" fill="#000000" /><rect width="130" height="10" x="190" y="40" fill="#ffffff" /><rect width="170" height="10" x="0" y="50" fill="#ffffff" /><rect width="10" height="10" x="170" y="50" fill="#000000" /><rect width="140" height="10" x="180" y="50" fill="#ffffff" /><rect width="160" height="10" x="0" y="60" fill="#ffffff" /><rect width="10" height="10" x="160" y="60" fill="#000000" /><rect width="150" height="10" x="170" y="60" fill="#ffffff" /><rect width="150" height="10" x="0" y="70" fill="#ffffff" /><rect width="10" height="10" x="150" y="70" fill="#000000" /><rect width="160" height="10" x="160" y="70" fill="#ffffff" /><rect width="140" height="10" x="0" y="80" fill="#ffffff" /><rect width="30" height="10" x="140" y="80" fill="#000000" /><rect width="150" height="10" x="170" y="80" fill="#ffffff" /><rect width="130" height="10" x="0" y="90" fill="#ffffff" /><rect width="10" height="10" x="130" y="90" fill="#000000" /><rect width="30" height="10" x="140" y="90" fill="#ffffff" /><rect width="10" height="10" x="170" y="90" fill="#000000" /><rect width="140" height="10" x="180" y="90" fill="#ffffff" /><rect width="110" height="10" x="0" y="100" fill="#ffffff" /><rect width="20" height="10" x="110" y="100" fill="#000000" /><rect width="50" height="10" x="130" y="100" fill="#ffffff" /><rect width="20" height="10" x="180" y="100" fill="#000000" /><rect width="120" height="10" x="200" y="100" fill="#ffffff" /><rect width="90" height="10" x="0" y="110" fill="#ffffff" /><rect width="20" height="10" x="90" y="110" fill="#000000" /><rect width="20" height="10" x="110" y="110" fill="#00ffff" /><rect width="50" height="10" x="130" y="110" fill="#000000" /><rect width="20" height="10" x="180" y="110" fill="#00ffff" /><rect width="20" height="10" x="200" y="110" fill="#000000" /><rect width="100" height="10" x="220" y="110" fill="#ffffff" /><rect width="80" height="10" x="0" y="120" fill="#ffffff" /><rect width="20" height="10" x="80" y="120" fill="#000000" /><rect width="110" height="10" x="100" y="120" fill="#00ffff" /><rect width="20" height="10" x="210" y="120" fill="#000000" /><rect width="90" height="10" x="230" y="120" fill="#ffffff" /><rect width="70" height="10" x="0" y="130" fill="#ffffff" /><rect width="20" height="10" x="70" y="130" fill="#000000" /><rect width="130" height="10" x="90" y="130" fill="#00ffff" /><rect width="20" height="10" x="220" y="130" fill="#000000" /><rect width="80" height="10" x="240" y="130" fill="#ffffff" /><rect width="60" height="10" x="0" y="140" fill="#ffffff" /><rect width="20" height="10" x="60" y="140" fill="#000000" /><rect width="150" height="10" x="80" y="140" fill="#00ffff" /><rect width="20" height="10" x="230" y="140" fill="#000000" /><rect width="70" height="10" x="250" y="140" fill="#ffffff" /><rect width="50" height="10" x="0" y="150" fill="#ffffff" /><rect width="20" height="10" x="50" y="150" fill="#000000" /><rect width="170" height="10" x="70" y="150" fill="#00ffff" /><rect width="20" height="10" x="240" y="150" fill="#000000" /><rect width="60" height="10" x="260" y="150" fill="#ffffff" /><rect width="40" height="10" x="0" y="160" fill="#ffffff" /><rect width="20" height="10" x="40" y="160" fill="#000000" /><rect width="190" height="10" x="60" y="160" fill="#00ffff" /><rect width="20" height="10" x="250" y="160" fill="#000000" /><rect width="50" height="10" x="270" y="160" fill="#ffffff" /><rect width="40" height="10" x="0" y="170" fill="#ffffff" /><rect width="20" height="10" x="40" y="170" fill="#000000" /><rect width="30" height="10" x="60" y="170" fill="#00ffff" /><rect width="10" height="10" x="90" y="170" fill="#000000" /><rect width="10" height="10" x="100" y="170" fill="#00ffff" /><rect width="10" height="10" x="110" y="170" fill="#000000" /><rect width="10" height="10" x="120" y="170" fill="#00ffff" /><rect width="10" height="10" x="130" y="170" fill="#000000" /><rect width="10" height="10" x="140" y="170" fill="#00ffff" /><rect width="10" height="10" x="150" y="170" fill="#000000" /><rect width="10" height="10" x="160" y="170" fill="#00ffff" /><rect width="10" height="10" x="170" y="170" fill="#000000" /><rect width="10" height="10" x="180" y="170" fill="#00ffff" /><rect width="10" height="10" x="190" y="170" fill="#000000" /><rect width="10" height="10" x="200" y="170" fill="#00ffff" /><rect width="10" height="10" x="210" y="170" fill="#000000" /><rect width="40" height="10" x="220" y="170" fill="#00ffff" /><rect width="10" height="10" x="260" y="170" fill="#000000" /><rect width="50" height="10" x="270" y="170" fill="#ffffff" /><rect width="30" height="10" x="0" y="180" fill="#ffffff" /><rect width="20" height="10" x="30" y="180" fill="#000000" /><rect width="210" height="10" x="50" y="180" fill="#00ffff" /><rect width="20" height="10" x="260" y="180" fill="#000000" /><rect width="40" height="10" x="280" y="180" fill="#ffffff" /><rect width="30" height="10" x="0" y="190" fill="#ffffff" /><rect width="10" height="10" x="30" y="190" fill="#000000" /><rect width="40" height="10" x="40" y="190" fill="#00ffff" /><rect width="10" height="10" x="80" y="190" fill="#000000" /><rect width="130" height="10" x="90" y="190" fill="#00ffff" /><rect width="10" height="10" x="220" y="190" fill="#000000" /><rect width="40" height="10" x="230" y="190" fill="#00ffff" /><rect width="10" height="10" x="270" y="190" fill="#000000" /><rect width="40" height="10" x="280" y="190" fill="#ffffff" /><rect width="30" height="10" x="0" y="200" fill="#ffffff" /><rect width="20" height="10" x="30" y="200" fill="#000000" /><rect width="30" height="10" x="50" y="200" fill="#00ffff" /><rect width="10" height="10" x="80" y="200" fill="#000000" /><rect width="130" height="10" x="90" y="200" fill="#00ffff" /><rect width="10" height="10" x="220" y="200" fill="#000000" /><rect width="30" height="10" x="230" y="200" fill="#00ffff" /><rect width="20" height="10" x="260" y="200" fill="#000000" /><rect width="40" height="10" x="280" y="200" fill="#ffffff" /><rect width="40" height="10" x="0" y="210" fill="#ffffff" /><rect width="20" height="10" x="40" y="210" fill="#000000" /><rect width="20" height="10" x="60" y="210" fill="#00ffff" /><rect width="10" height="10" x="80" y="210" fill="#000000" /><rect width="130" height="10" x="90" y="210" fill="#00ffff" /><rect width="10" height="10" x="220" y="210" fill="#000000" /><rect width="20" height="10" x="230" y="210" fill="#00ffff" /><rect width="20" height="10" x="250" y="210" fill="#000000" /><rect width="50" height="10" x="270" y="210" fill="#ffffff" /><rect width="50" height="10" x="0" y="220" fill="#ffffff" /><rect width="20" height="10" x="50" y="220" fill="#000000" /><rect width="10" height="10" x="70" y="220" fill="#00ffff" /><rect width="10" height="10" x="80" y="220" fill="#000000" /><rect width="130" height="10" x="90" y="220" fill="#00ffff" /><rect width="10" height="10" x="220" y="220" fill="#000000" /><rect width="10" height="10" x="230" y="220" fill="#00ffff" /><rect width="20" height="10" x="240" y="220" fill="#000000" /><rect width="60" height="10" x="260" y="220" fill="#ffffff" /><rect width="60" height="10" x="0" y="230" fill="#ffffff" /><rect width="30" height="10" x="60" y="230" fill="#000000" /><rect width="130" height="10" x="90" y="230" fill="#00ffff" /><rect width="30" height="10" x="220" y="230" fill="#000000" /><rect width="70" height="10" x="250" y="230" fill="#ffffff" /><rect width="80" height="10" x="0" y="240" fill="#ffffff" /><rect width="10" height="10" x="80" y="240" fill="#000000" /><rect width="130" height="10" x="90" y="240" fill="#00ffff" /><rect width="10" height="10" x="220" y="240" fill="#000000" /><rect width="90" height="10" x="230" y="240" fill="#ffffff" /><rect width="80" height="10" x="0" y="250" fill="#ffffff" /><rect width="10" height="10" x="80" y="250" fill="#000000" /><rect width="130" height="10" x="90" y="250" fill="#00ffff" /><rect width="10" height="10" x="220" y="250" fill="#000000" /><rect width="90" height="10" x="230" y="250" fill="#ffffff" /><rect width="80" height="10" x="0" y="260" fill="#ffffff" /><rect width="10" height="10" x="80" y="260" fill="#000000" /><rect width="130" height="10" x="90" y="260" fill="#00ffff" /><rect width="10" height="10" x="220" y="260" fill="#000000" /><rect width="90" height="10" x="230" y="260" fill="#ffffff" /><rect width="80" height="10" x="0" y="270" fill="#ffffff" /><rect width="10" height="10" x="80" y="270" fill="#000000" /><rect width="130" height="10" x="90" y="270" fill="#00ffff" /><rect width="10" height="10" x="220" y="270" fill="#000000" /><rect width="90" height="10" x="230" y="270" fill="#ffffff" /><rect width="80" height="10" x="0" y="280" fill="#ffffff" /><rect width="10" height="10" x="80" y="280" fill="#000000" /><rect width="130" height="10" x="90" y="280" fill="#00ffff" /><rect width="10" height="10" x="220" y="280" fill="#000000" /><rect width="90" height="10" x="230" y="280" fill="#ffffff" /><rect width="80" height="10" x="0" y="290" fill="#ffffff" /><rect width="10" height="10" x="80" y="290" fill="#000000" /><rect width="130" height="10" x="90" y="290" fill="#00ffff" /><rect width="10" height="10" x="220" y="290" fill="#000000" /><rect width="90" height="10" x="230" y="290" fill="#ffffff" /><rect width="80" height="10" x="0" y="300" fill="#ffffff" /><rect width="150" height="10" x="80" y="300" fill="#000000" /><rect width="90" height="10" x="230" y="300" fill="#ffffff" /><rect width="320" height="10" x="0" y="310" fill="#ffffff" /></svg>