<svg width="320" height="320" viewBox="0 0 320 320" xmlns="http://www.w3.org/2000/svg" shape-rendering="crispEdges"><rect width="100%" height="100%" fill="#ffffff" /><use href="#animated1"/><rect width="320" height="10" x="0" y="0" fill="#ffffff" /><rect width="320" height="10" x="0" y="10" fill="#ffffff" /><rect width="110" height="10" x="0" y="20" fill="#ffffff" /><rect width="110" height="10" x="110" y="20" fill="#000000" /><rect width="100" height="10" x="220" y="20" fill="#ffffff" /><rect width="90" height="10" x="0" y="30" fill="#ffffff" /><rect width="140" height="10" x="90" y="30" fill="#000000" /><rect width="90" height="10" x="230" y="30" fill="#ffffff" /><rect width="80" height="10" x="0" y="40" fill="#ffffff" /><rect width="160" height="10" x="80" y="40" fill="#000000" /><rect width="80" height="10" x="240" y="40" fill="#ffffff" /><rect width="70" height="10" x="0" y="50" fill="#ffffff" /><rect width="190" height="10" x="70" y="50" fill="#000000" /><rect width="60" height="10" x="260" y="50" fill="#ffffff" /><rect width="60" height="10" x="0" y="60" fill="#ffffff" /><rect width="200" height="10" x="60" y="60" fill="#000000" /><rect width="60" height="10" x="260" y="60" fill="#ffffff" /><rect width="50" height="10" x="0" y="70" fill="#ffffff" /><rect width="220" height="10" x="50" y="70" fill="#000000" /><rect width="50" height="10" x="270" y="70" fill="#ffffff" /><rect width="50" height="10" x="0" y="80" fill="#ffffff" /><rect width="40" height="10" x="50" y="80" fill="#000000" /><rect width="140" height="10" x="90" y="80" fill="#e8b8bc" /><rect width="40" height="10" x="230" y="80" fill="#000000" /><rect width="50" height="10" x="270" y="80" fill="#ffffff" /><rect width="50" height="10" x="0" y="90" fill="#ffffff" /><rect width="30" height="10" x="50" y="90" fill="#000000" /><rect width="160" height="10" x="80" y="90" fill="#e8b8bc" /><rect width="30" height="10" x="240" y="90" fill="#000000" /><rect width="50" height="10" x="270" y="90" fill="#ffffff" /><rect width="40" height="10" x="0" y="100" fill="#ffffff" /><rect width="40" height="10" x="40" y="100" fill="#000000" /><rect width="160" height="10" x="80" y="100" fill="#e8b8bc" /><rect width="40" height="10" x="240" y="100" fill="#000000" /><rect width="40" height="10" x="280" y="100" fill="#ffffff" /><rect width="40" height="10" x="0" y="110" fill="#ffffff" /><rect width="40" height="10" x="40" y="110" fill="#000000" /><rect width="160" height="10" x="80" y="110" fill="#e8b8bc" /><rect width="40" height="10" x="240" y="110" fill="#000000" /><rect width="40" height="10" x="280" y="110" fill="#ffffff" /><rect width="40" height="10" x="0" y="120" fill="#ffffff" /><rect width="30" height="10" x="40" y="120" fill="#000000" /><rect width="180" height="10" x="70" y="120" fill="#e8b8bc" /><rect width="30" height="10" x="250" y="120" fill="#000000" /><rect width="40" height="10" x="280" y="120" fill="#ffffff" /><rect width="40" height="10" x="0" y="130" fill="#ffffff" /><rect width="30" height="10" x="40" y="130" fill="#000000" /><rect width="180" height="10" x="70" y="130" fill="#e8b8bc" /><rect width="30" height="10" x="250" y="130" fill="#000000" /><rect width="40" height="10" x="280" y="130" fill="#ffffff" /><rect width="40" height="10" x="0" y="140" fill="#ffffff" /><rect width="30" height="10" x="40" y="140" fill="#000000" /><rect width="180" height="10" x="70" y="140" fill="#e8b8bc" /><rect width="30" height="10" x="250" y="140" fill="#000000" /><rect width="40" height="10" x="280" y="140" fill="#ffffff" /><rect width="40" height="10" x="0" y="150" fill="#ffffff" /><rect width="30" height="10" x="40" y="150" fill="#000000" /><rect width="180" height="10" x="70" y="150" fill="#e8b8bc" /><rect width="30" height="10" x="250" y="150" fill="#000000" /><rect width="40" height="10" x="280" y="150" fill="#ffffff" /><rect width="40" height="10" x="0" y="160" fill="#ffffff" /><rect width="10" height="10" x="40" y="160" fill="#e8b8bc" /><rect width="20" height="10" x="50" y="160" fill="#000000" /><rect width="30" height="10" x="70" y="160" fill="#e8b8bc" /><rect width="50" height="10" x="100" y="160" fill="#000000" /><rect width="30" height="10" x="150" y="160" fill="#e8b8bc" /><rect width="50" height="10" x="180" y="160" fill="#000000" /><rect width="20" height="10" x="230" y="160" fill="#e8b8bc" /><rect width="20" height="10" x="250" y="160" fill="#000000" /><rect width="10" height="10" x="270" y="160" fill="#e8b8bc" /><rect width="40" height="10" x="280" y="160" fill="#ffffff" /><rect width="40" height="10" x="0" y="170" fill="#ffffff" /><rect width="10" height="10" x="40" y="170" fill="#e8b8bc" /><rect width="20" height="10" x="50" y="170" fill="#000000" /><rect width="70" height="10" x="70" y="170" fill="#e8b8bc" /><rect width="20" height="10" x="140" y="170" fill="#000000" /><rect width="10" height="10" x="160" y="170" fill="#e8b8bc" /><rect width="20" height="10" x="170" y="170" fill="#000000" /><rect width="60" height="10" x="190" y="170" fill="#e8b8bc" /><rect width="20" height="10" x="250" y="170" fill="#000000" /><rect width="10" height="10" x="270" y="170" fill="#e8b8bc" /><rect width="40" height="10" x="280" y="170" fill="#ffffff" /><rect width="40" height="10" x="0" y="180" fill="#ffffff" /><rect width="20" height="10" x="40" y="180" fill="#e8b8bc" /><rect width="10" height="10" x="60" y="180" fill="#000000" /><rect width="30" height="10" x="70" y="180" fill="#e8b8bc" /><rect width="30" height="10" x="100" y="180" fill="#000000" /><rect width="20" height="10" x="130" y="180" fill="#e8b8bc" /><rect width="10" height="10" x="150" y="180" fill="#000000" /><rect width="30" height="10" x="160" y="180" fill="#e8b8bc" /><rect width="30" height="10" x="190" y="180" fill="#000000" /><rect width="30" height="10" x="220" y="180" fill="#e8b8bc" /><rect width="10" height="10" x="250" y="180" fill="#000000" /><rect width="20" height="10" x="260" y="180" fill="#e8b8bc" /><rect width="40" height="10" x="280" y="180" fill="#ffffff" /><rect width="40" height="10" x="0" y="190" fill="#ffffff" /><rect width="110" height="10" x="40" y="190" fill="#e8b8bc" /><rect width="10" height="10" x="150" y="190" fill="#000000" /><rect width="120" height="10" x="160" y="190" fill="#e8b8bc" /><rect width="40" height="10" x="280" y="190" fill="#ffffff" /><rect width="50" height="10" x="0" y="200" fill="#ffffff" /><rect width="10" height="10" x="50" y="200" fill="#e8b8bc" /><rect width="10" height="10" x="60" y="200" fill="#000000" /><rect width="70" height="10" x="70" y="200" fill="#e8b8bc" /><rect width="20" height="10" x="140" y="200" fill="#000000" /><rect width="90" height="10" x="160" y="200" fill="#e8b8bc" /><rect width="10" height="10" x="250" y="200" fill="#000000" /><rect width="10" height="10" x="260" y="200" fill="#e8b8bc" /><rect width="50" height="10" x="270" y="200" fill="#ffffff" /><rect width="50" height="10" x="0" y="210" fill="#ffffff" /><rect width="80" height="10" x="50" y="210" fill="#e8b8bc" /><rect width="20" height="10" x="130" y="210" fill="#000000" /><rect width="120" height="10" x="150" y="210" fill="#e8b8bc" /><rect width="50" height="10" x="270" y="210" fill="#ffffff" /><rect width="60" height="10" x="0" y="220" fill="#ffffff" /><rect width="10" height="10" x="60" y="220" fill="#000000" /><rect width="60" height="10" x="70" y="220" fill="#e8b8bc" /><rect width="20" height="10" x="130" y="220" fill="#000000" /><rect width="30" height="10" x="150" y="220" fill="#e8b8bc" /><rect width="10" height="10" x="180" y="220" fill="#000000" /><rect width="60" height="10" x="190" y="220" fill="#e8b8bc" /><rect width="10" height="10" x="250" y="220" fill="#000000" /><rect width="60" height="10" x="260" y="220" fill="#ffffff" /><rect width="60" height="10" x="0" y="230" fill="#ffffff" /><rect width="80" height="10" x="60" y="230" fill="#e8b8bc" /><rect width="40" height="10" x="140" y="230" fill="#000000" /><rect width="80" height="10" x="180" y="230" fill="#e8b8bc" /><rect width="60" height="10" x="260" y="230" fill="#ffffff" /><rect width="70" height="10" x="0" y="240" fill="#ffffff" /><rect width="180" height="10" x="70" y="240" fill="#e8b8bc" /><rect width="70" height="10" x="250" y="240" fill="#ffffff" /><rect width="70" height="10" x="0" y="250" fill="#ffffff" /><rect width="40" height="10" x="70" y="250" fill="#e8b8bc" /><rect width="10" height="10" x="110" y="250" fill="#000000" /><rect width="90" height="10" x="120" y="250" fill="#e8b8bc" /><rect width="10" height="10" x="210" y="250" fill="#000000" /><rect width="30" height="10" x="220" y="250" fill="#e8b8bc" /><rect width="70" height="10" x="250" y="250" fill="#ffffff" /><rect width="80" height="10" x="0" y="260" fill="#ffffff" /><rect width="30" height="10" x="80" y="260" fill="#e8b8bc" /><rect width="110" height="10" x="110" y="260" fill="#000000" /><rect width="20" height="10" x="220" y="260" fill="#e8b8bc" /><rect width="80" height="10" x="240" y="260" fill="#ffffff" /><rect width="90" height="10" x="0" y="270" fill="#ffffff" /><rect width="140" height="10" x="90" y="270" fill="#e8b8bc" /><rect width="90" height="10" x="230" y="270" fill="#ffffff" /><rect width="100" height="10" x="0" y="280" fill="#ffffff" /><rect width="50" height="10" x="100" y="280" fill="#e8b8bc" /><rect width="30" height="10" x="150" y="280" fill="#000000" /><rect width="40" height="10" x="180" y="280" fill="#e8b8bc" /><rect width="100" height="10" x="220" y="280" fill="#ffffff" /><rect width="110" height="10" x="0" y="290" fill="#ffffff" /><rect width="100" height="10" x="110" y="290" fill="#e8b8bc" /><rect width="110" height="10" x="210" y="290" fill="#ffffff" /><rect width="130" height="10" x="0" y="300" fill="#ffffff" /><rect width="60" height="10" x="130" y="300" fill="#e8b8bc" /><rect width="130" height="10" x="190" y="300" fill="#ffffff" /><rect width="320" height="10" x="0" y="310" fill="#ffffff" /></svg>
